<svg xmlns="http://www.w3.org/2000/svg" width="256" height="256" viewBox="0 0 256 256" role="img" aria-label="DHBA logo">
	<defs>
		<linearGradient id="g" x1="0" y1="0" x2="1" y2="1">
			<stop offset="0" stop-color="hsl(230,85%,58%)"/>
			<stop offset="1" stop-color="hsl(230,85%,48%)"/>
		</linearGradient>
	</defs>
	<rect x="16" y="16" width="224" height="224" rx="44" fill="url(#g)"/>
	<g fill="#fff">
		<path d="M64 88h42c22 0 36 12 36 32s-14 32-36 32H88v24H64V88zm24 24v16h17c8 0 13-4 13-8s-5-8-13-8H88z" opacity=".95"/>
		<path d="M140 88h52c12 0 20 8 20 20v40c0 12-8 20-20 20h-52V88zm24 24v32h24c4 0 8-4 8-8v-16c0-4-4-8-8-8h-24z" opacity=".95"/>
	</g>
</svg>


